<?xml version="1.0" encoding="UTF-8"?>
<svg xmlns="http://www.w3.org/2000/svg" xmlns:xlink="http://www.w3.org/1999/xlink" width="296pt" height="53pt" viewBox="0 0 296 53" version="1.1">
<g id="surface1">
<path style=" stroke:none;fill-rule:nonzero;fill:rgb(3.157043%,2.095032%,3.291321%);fill-opacity:1;" d="M 34.203125 7.832031 C 34.203125 3.816406 34.242188 0.105469 38.695312 0.105469 C 42.296875 0.105469 42.359375 3.074219 42.359375 4.414062 L 41.042969 4.414062 C 41.042969 2.765625 40.589844 1.21875 38.695312 1.21875 C 35.5625 1.21875 35.523438 3.878906 35.523438 7.832031 C 35.523438 11.785156 35.5625 14.445312 38.695312 14.445312 C 40.402344 14.445312 41.042969 12.917969 41.0625 11.003906 L 42.464844 11.003906 C 42.464844 12.074219 42.214844 15.554688 38.695312 15.554688 C 34.242188 15.554688 34.203125 11.847656 34.203125 7.832031 "/>
<path style=" stroke:none;fill-rule:nonzero;fill:rgb(3.157043%,2.095032%,3.291321%);fill-opacity:1;" d="M 45.550781 10.324219 L 45.550781 11.128906 C 45.550781 12.570312 45.941406 14.484375 47.898438 14.484375 C 49.445312 14.484375 50.207031 13.496094 50.1875 12.097656 L 51.484375 12.097656 C 51.339844 14.609375 49.980469 15.472656 47.898438 15.472656 C 46.105469 15.472656 44.316406 14.753906 44.316406 11.601562 L 44.316406 9.046875 C 44.316406 6.039062 45.570312 4.660156 47.898438 4.660156 C 51.484375 4.660156 51.484375 7.234375 51.484375 10.324219 Z M 50.246094 9.335938 C 50.246094 7.027344 49.878906 5.648438 47.898438 5.648438 C 45.921875 5.648438 45.550781 7.027344 45.550781 9.335938 L 50.246094 9.335938 "/>
<path style=" stroke:none;fill-rule:nonzero;fill:rgb(3.157043%,2.095032%,3.291321%);fill-opacity:1;" d="M 54.964844 15.269531 L 53.726562 15.269531 L 53.726562 4.867188 L 54.964844 4.867188 L 54.964844 6.144531 L 55.003906 6.144531 C 55.601562 5.277344 56.40625 4.660156 57.519531 4.660156 C 60.09375 4.660156 60.359375 6.574219 60.359375 7.933594 L 60.359375 15.269531 L 59.125 15.269531 L 59.125 7.996094 C 59.125 6.78125 58.652344 5.648438 57.210938 5.648438 C 56.097656 5.648438 54.964844 6.410156 54.964844 8.738281 L 54.964844 15.269531 "/>
<path style=" stroke:none;fill-rule:nonzero;fill:rgb(3.157043%,2.095032%,3.291321%);fill-opacity:1;" d="M 61.945312 5.855469 L 61.945312 4.867188 L 63.613281 4.867188 L 63.613281 2.722656 L 64.847656 2.1875 L 64.847656 4.867188 L 66.953125 4.867188 L 66.953125 5.855469 L 64.847656 5.855469 L 64.847656 12.53125 C 64.847656 13.910156 64.992188 14.238281 65.984375 14.238281 C 66.394531 14.238281 66.683594 14.21875 66.953125 14.175781 L 66.953125 15.246094 C 66.582031 15.289062 66.167969 15.308594 65.777344 15.308594 C 64.109375 15.308594 63.613281 14.570312 63.613281 13.289062 L 63.613281 5.855469 L 61.945312 5.855469 "/>
<path style=" stroke:none;fill-rule:nonzero;fill:rgb(3.157043%,2.095032%,3.291321%);fill-opacity:1;" d="M 69.566406 10.324219 L 69.566406 11.128906 C 69.566406 12.570312 69.957031 14.484375 71.914062 14.484375 C 73.460938 14.484375 74.222656 13.496094 74.199219 12.097656 L 75.5 12.097656 C 75.355469 14.609375 73.996094 15.472656 71.914062 15.472656 C 70.121094 15.472656 68.332031 14.753906 68.332031 11.601562 L 68.332031 9.046875 C 68.332031 6.039062 69.585938 4.660156 71.914062 4.660156 C 75.5 4.660156 75.5 7.234375 75.5 10.324219 Z M 74.261719 9.335938 C 74.261719 7.027344 73.890625 5.648438 71.914062 5.648438 C 69.9375 5.648438 69.566406 7.027344 69.566406 9.335938 L 74.261719 9.335938 "/>
<path style=" stroke:none;fill-rule:nonzero;fill:rgb(3.157043%,2.095032%,3.291321%);fill-opacity:1;" d="M 79.058594 6.265625 L 79.101562 6.265625 C 79.617188 5.277344 80.707031 4.660156 81.964844 4.660156 L 81.964844 5.914062 C 80.214844 5.773438 79.058594 6.824219 79.058594 8.574219 L 79.058594 15.269531 L 77.824219 15.269531 L 77.824219 4.867188 L 79.058594 4.867188 L 79.058594 6.265625 "/>
<path style=" stroke:none;fill-rule:nonzero;fill:rgb(3.157043%,2.095032%,3.291321%);fill-opacity:1;" d="M 88.84375 5.855469 L 87.175781 5.855469 L 87.175781 4.867188 L 88.84375 4.867188 L 88.84375 3.113281 C 88.84375 2.125 88.988281 0.3125 91.5 0.3125 C 91.6875 0.3125 91.890625 0.355469 92.199219 0.394531 L 92.199219 1.425781 L 91.273438 1.425781 C 90.078125 1.425781 90.078125 2.496094 90.078125 3.09375 L 90.078125 4.867188 L 92.179688 4.867188 L 92.179688 5.855469 L 90.078125 5.855469 L 90.078125 15.269531 L 88.84375 15.269531 L 88.84375 5.855469 "/>
<path style=" stroke:none;fill-rule:nonzero;fill:rgb(3.157043%,2.095032%,3.291321%);fill-opacity:1;" d="M 93.496094 11.191406 L 93.496094 8.945312 C 93.496094 6.246094 94.652344 4.660156 97.082031 4.660156 C 99.511719 4.660156 100.664062 6.246094 100.664062 8.945312 L 100.664062 11.191406 C 100.664062 13.890625 99.511719 15.472656 97.082031 15.472656 C 94.652344 15.472656 93.496094 13.890625 93.496094 11.191406 Z M 94.734375 10.054688 C 94.734375 12.777344 95.042969 14.484375 97.082031 14.484375 C 99.121094 14.484375 99.429688 12.777344 99.429688 10.054688 C 99.429688 7.359375 99.121094 5.648438 97.082031 5.648438 C 95.042969 5.648438 94.734375 7.359375 94.734375 10.054688 "/>
<path style=" stroke:none;fill-rule:nonzero;fill:rgb(3.157043%,2.095032%,3.291321%);fill-opacity:1;" d="M 104.226562 6.265625 L 104.269531 6.265625 C 104.785156 5.277344 105.875 4.660156 107.132812 4.660156 L 107.132812 5.914062 C 105.382812 5.773438 104.226562 6.824219 104.226562 8.574219 L 104.226562 15.269531 L 102.992188 15.269531 L 102.992188 4.867188 L 104.226562 4.867188 L 104.226562 6.265625 "/>
<path style=" stroke:none;fill-rule:nonzero;fill:rgb(3.157043%,2.095032%,3.291321%);fill-opacity:1;" d="M 13.046875 25.992188 C 13.085938 23.488281 12.671875 21.285156 9.683594 21.285156 C 6.171875 21.285156 6.171875 26.03125 6.171875 31.257812 C 6.171875 39.703125 6.996094 41.195312 10.207031 41.195312 C 11.140625 41.195312 12.148438 40.96875 13.007812 40.671875 L 13.007812 34.695312 L 9.945312 34.695312 L 9.945312 30.546875 L 18.648438 30.546875 L 18.648438 44.21875 C 17.117188 44.519531 13.269531 45.117188 11.03125 45.117188 C 1.542969 45.117188 0.457031 41.195312 0.457031 30.960938 C 0.457031 24.160156 0.792969 17.253906 10.019531 17.253906 C 15.550781 17.253906 18.984375 20.351562 18.648438 25.992188 L 13.046875 25.992188 "/>
<path style=" stroke:none;fill-rule:nonzero;fill:rgb(3.157043%,2.095032%,3.291321%);fill-opacity:1;" d="M 28.132812 36.078125 C 28.132812 38.320312 28.207031 41.679688 30.523438 41.679688 C 32.390625 41.679688 32.765625 39.886719 32.765625 38.320312 L 38.105469 38.320312 C 38.03125 40.371094 37.359375 42.054688 36.089844 43.210938 C 34.855469 44.371094 32.988281 45.042969 30.523438 45.042969 C 23.726562 45.042969 22.828125 40.898438 22.828125 34.992188 C 22.828125 29.839844 23.578125 25.429688 30.523438 25.429688 C 37.621094 25.429688 38.40625 30.027344 38.21875 36.078125 Z M 32.953125 33.128906 C 32.953125 31.296875 33.027344 28.679688 30.523438 28.679688 C 28.097656 28.679688 28.132812 31.519531 28.132812 33.128906 L 32.953125 33.128906 "/>
<path style=" stroke:none;fill-rule:nonzero;fill:rgb(3.157043%,2.095032%,3.291321%);fill-opacity:1;" d="M 41.503906 34.992188 C 41.503906 29.839844 42.25 25.429688 49.199219 25.429688 C 56.144531 25.429688 56.894531 29.839844 56.894531 34.992188 C 56.894531 40.898438 55.996094 45.042969 49.199219 45.042969 C 42.398438 45.042969 41.503906 40.898438 41.503906 34.992188 Z M 51.625 34.695312 C 51.625 30.773438 51.4375 28.792969 49.199219 28.792969 C 46.957031 28.792969 46.769531 30.773438 46.769531 34.695312 C 46.769531 40.449219 47.253906 41.679688 49.199219 41.679688 C 51.140625 41.679688 51.625 40.449219 51.625 34.695312 "/>
<path style=" stroke:none;fill-rule:nonzero;fill:rgb(3.157043%,2.095032%,3.291321%);fill-opacity:1;" d="M 65.519531 38.617188 C 65.480469 39.476562 65.519531 40.296875 65.78125 40.898438 C 66.078125 41.492188 66.640625 41.792969 67.683594 41.792969 C 68.730469 41.792969 69.628906 41.121094 69.628906 39.851562 C 69.628906 35.851562 60.363281 36.75 60.363281 30.734375 C 60.363281 26.664062 64.398438 25.429688 67.796875 25.429688 C 71.382812 25.429688 74.632812 27.152344 74.332031 31.222656 L 69.179688 31.222656 C 69.179688 29.914062 69.03125 29.128906 68.65625 28.792969 C 68.320312 28.457031 67.871094 28.382812 67.3125 28.382812 C 66.152344 28.382812 65.519531 29.128906 65.519531 30.402344 C 65.519531 33.390625 74.78125 33.238281 74.78125 39.289062 C 74.78125 42.578125 72.09375 45.042969 67.722656 45.042969 C 63.128906 45.042969 60.066406 43.886719 60.363281 38.617188 L 65.519531 38.617188 "/>
<path style=" stroke:none;fill-rule:nonzero;fill:rgb(3.157043%,2.095032%,3.291321%);fill-opacity:1;" d="M 82.960938 25.804688 L 82.960938 27.898438 L 83.035156 27.898438 C 84.003906 26.066406 85.460938 25.429688 87.480469 25.429688 C 92.933594 25.429688 92.746094 31.484375 92.746094 35.367188 C 92.746094 39.175781 92.894531 45.042969 87.589844 45.042969 C 85.6875 45.042969 84.378906 44.480469 83.296875 42.875 L 83.21875 42.875 L 83.21875 52.773438 L 77.953125 52.773438 L 77.953125 25.804688 Z M 87.589844 35.070312 C 87.589844 31.296875 87.628906 28.679688 85.347656 28.679688 C 83.183594 28.679688 83.21875 31.296875 83.21875 35.070312 C 83.21875 39.8125 83.554688 41.792969 85.347656 41.792969 C 87.253906 41.792969 87.589844 39.8125 87.589844 35.070312 "/>
<path style=" stroke:none;fill-rule:nonzero;fill:rgb(3.157043%,2.095032%,3.291321%);fill-opacity:1;" d="M 110.1875 41.15625 C 110.1875 42.316406 110.335938 43.511719 110.449219 44.667969 L 105.554688 44.667969 L 105.332031 42.164062 L 105.257812 42.164062 C 104.136719 44.109375 102.605469 45.042969 100.324219 45.042969 C 96.664062 45.042969 95.320312 42.316406 95.320312 39.027344 C 95.320312 32.789062 100.140625 32.53125 105.03125 32.601562 L 105.03125 31.148438 C 105.03125 29.539062 104.808594 28.382812 102.902344 28.382812 C 101.074219 28.382812 100.921875 29.765625 100.921875 31.257812 L 95.769531 31.257812 C 95.769531 28.980469 96.476562 27.523438 97.710938 26.664062 C 98.90625 25.769531 100.625 25.429688 102.640625 25.429688 C 109.328125 25.429688 110.1875 28.308594 110.1875 31.742188 Z M 100.476562 38.804688 C 100.476562 40.148438 100.699219 41.792969 102.417969 41.792969 C 105.519531 41.792969 105.03125 37.609375 105.03125 35.554688 C 102.417969 35.667969 100.476562 35.441406 100.476562 38.804688 "/>
<path style=" stroke:none;fill-rule:nonzero;fill:rgb(3.157043%,2.095032%,3.291321%);fill-opacity:1;" d="M 113.171875 25.804688 L 115.300781 25.804688 L 115.300781 22.816406 L 120.566406 20.464844 L 120.566406 25.804688 L 123.296875 25.804688 L 123.296875 29.054688 L 120.566406 29.054688 L 120.566406 39.140625 C 120.566406 40.558594 120.53125 41.492188 122.25 41.492188 C 122.585938 41.492188 122.921875 41.492188 123.183594 41.417969 L 123.183594 44.667969 C 122.472656 44.742188 121.726562 44.855469 120.457031 44.855469 C 115.898438 44.855469 115.300781 41.832031 115.300781 40.671875 L 115.300781 29.054688 L 113.171875 29.054688 L 113.171875 25.804688 "/>
<path style=" stroke:none;fill-rule:nonzero;fill:rgb(3.157043%,2.095032%,3.291321%);fill-opacity:1;" d="M 131.398438 17.699219 L 131.398438 21.84375 L 126.132812 21.84375 L 126.132812 17.699219 Z M 131.398438 44.667969 L 126.132812 44.667969 L 126.132812 25.804688 L 131.398438 25.804688 L 131.398438 44.667969 "/>
<path style=" stroke:none;fill-rule:nonzero;fill:rgb(3.157043%,2.095032%,3.291321%);fill-opacity:1;" d="M 150.371094 41.15625 C 150.371094 42.316406 150.523438 43.511719 150.632812 44.667969 L 145.742188 44.667969 L 145.515625 42.164062 L 145.441406 42.164062 C 144.320312 44.109375 142.789062 45.042969 140.511719 45.042969 C 136.851562 45.042969 135.507812 42.316406 135.507812 39.027344 C 135.507812 32.789062 140.324219 32.53125 145.21875 32.601562 L 145.21875 31.148438 C 145.21875 29.539062 144.992188 28.382812 143.089844 28.382812 C 141.257812 28.382812 141.109375 29.765625 141.109375 31.257812 L 135.953125 31.257812 C 135.953125 28.980469 136.664062 27.523438 137.898438 26.664062 C 139.09375 25.769531 140.808594 25.429688 142.828125 25.429688 C 149.515625 25.429688 150.371094 28.308594 150.371094 31.742188 Z M 140.660156 38.804688 C 140.660156 40.148438 140.886719 41.792969 142.601562 41.792969 C 145.703125 41.792969 145.21875 37.609375 145.21875 35.554688 C 142.601562 35.667969 140.660156 35.441406 140.660156 38.804688 "/>
<path style=" stroke:none;fill-rule:nonzero;fill:rgb(3.157043%,2.095032%,3.291321%);fill-opacity:1;" d="M 155.1875 44.667969 L 160.457031 44.667969 L 160.457031 17.699219 L 155.1875 17.699219 Z M 155.1875 44.667969 "/>
<path style=" stroke:none;fill-rule:nonzero;fill:rgb(3.157043%,2.095032%,3.291321%);fill-opacity:1;" d="M 181.324219 17.738281 L 189.730469 44.707031 L 187.226562 44.707031 L 185.058594 37.609375 L 174.488281 37.609375 L 172.359375 44.707031 L 169.96875 44.707031 L 178.484375 17.738281 Z M 184.425781 35.59375 L 179.828125 20.351562 L 179.757812 20.351562 L 175.199219 35.59375 L 184.425781 35.59375 "/>
<path style=" stroke:none;fill-rule:nonzero;fill:rgb(3.157043%,2.095032%,3.291321%);fill-opacity:1;" d="M 194.769531 44.707031 L 192.527344 44.707031 L 192.527344 25.84375 L 194.769531 25.84375 L 194.769531 28.160156 L 194.84375 28.160156 C 195.925781 26.589844 197.382812 25.46875 199.398438 25.46875 C 204.070312 25.46875 204.554688 28.945312 204.554688 31.410156 L 204.554688 44.707031 L 202.3125 44.707031 L 202.3125 31.523438 C 202.3125 29.316406 201.453125 27.261719 198.839844 27.261719 C 196.824219 27.261719 194.769531 28.644531 194.769531 32.867188 L 194.769531 44.707031 "/>
<path style=" stroke:none;fill-rule:nonzero;fill:rgb(3.157043%,2.095032%,3.291321%);fill-opacity:1;" d="M 219.605469 42.390625 L 219.53125 42.390625 C 218.335938 44.183594 216.503906 45.082031 214.1875 45.082031 C 210.828125 45.082031 208.996094 42.800781 208.996094 39.515625 C 208.996094 32.902344 215.644531 33.578125 219.457031 33.277344 L 219.457031 31.707031 C 219.457031 28.945312 218.632812 27.261719 215.644531 27.261719 C 213.589844 27.261719 211.945312 28.273438 211.945312 30.511719 L 209.558594 30.511719 C 209.742188 26.890625 212.546875 25.46875 215.832031 25.46875 C 217.738281 25.46875 221.695312 25.65625 221.695312 30.476562 L 221.695312 39.964844 C 221.695312 41.308594 221.695312 42.503906 221.921875 44.707031 L 219.605469 44.707031 Z M 219.457031 35.070312 C 216.242188 35.179688 211.386719 34.808594 211.386719 39.402344 C 211.386719 41.53125 212.472656 43.289062 214.785156 43.289062 C 217.363281 43.289062 219.457031 40.972656 219.457031 38.507812 L 219.457031 35.070312 "/>
<path style=" stroke:none;fill-rule:nonzero;fill:rgb(3.157043%,2.095032%,3.291321%);fill-opacity:1;" d="M 227.183594 44.707031 L 229.425781 44.707031 L 229.425781 17.738281 L 227.183594 17.738281 Z M 227.183594 44.707031 "/>
<path style=" stroke:none;fill-rule:nonzero;fill:rgb(3.157043%,2.095032%,3.291321%);fill-opacity:1;" d="M 238.800781 44.742188 L 232.824219 25.84375 L 235.253906 25.84375 L 239.847656 41.308594 L 239.921875 41.308594 L 244.367188 25.84375 L 246.605469 25.84375 L 238.800781 51.84375 L 236.597656 51.84375 L 238.800781 44.742188 "/>
<path style=" stroke:none;fill-rule:nonzero;fill:rgb(3.157043%,2.095032%,3.291321%);fill-opacity:1;" d="M 248.320312 27.636719 L 248.320312 25.84375 L 251.347656 25.84375 L 251.347656 21.960938 L 253.589844 20.988281 L 253.589844 25.84375 L 257.398438 25.84375 L 257.398438 27.636719 L 253.589844 27.636719 L 253.589844 39.738281 C 253.589844 42.242188 253.851562 42.839844 255.644531 42.839844 C 256.390625 42.839844 256.914062 42.800781 257.398438 42.726562 L 257.398438 44.667969 C 256.726562 44.742188 255.980469 44.78125 255.269531 44.78125 C 252.242188 44.78125 251.347656 43.4375 251.347656 41.121094 L 251.347656 27.636719 L 248.320312 27.636719 "/>
<path style=" stroke:none;fill-rule:nonzero;fill:rgb(3.157043%,2.095032%,3.291321%);fill-opacity:1;" d="M 261.617188 20.578125 L 261.617188 17.738281 L 264.382812 17.738281 L 264.382812 20.578125 Z M 261.878906 44.707031 L 261.878906 25.84375 L 264.121094 25.84375 L 264.121094 44.707031 L 261.878906 44.707031 "/>
<path style=" stroke:none;fill-rule:nonzero;fill:rgb(3.157043%,2.095032%,3.291321%);fill-opacity:1;" d="M 278.386719 31.261719 C 278.5 28.90625 277.640625 27.261719 275.0625 27.261719 C 273.683594 27.261719 272.523438 28.046875 272.039062 29.429688 C 271.738281 30.289062 271.515625 32.867188 271.515625 35.367188 C 271.515625 38.769531 271.515625 43.289062 274.988281 43.289062 C 277.941406 43.289062 278.3125 41.417969 278.425781 39.140625 L 280.667969 39.140625 C 280.855469 44.222656 277.269531 45.082031 275.511719 45.082031 C 269.125 45.082031 269.125 40.039062 269.125 35.367188 C 269.125 33.5 269.199219 30.550781 269.683594 29.132812 C 270.65625 26.441406 272.785156 25.46875 275.363281 25.46875 C 278.613281 25.46875 280.816406 27.300781 280.628906 31.261719 L 278.386719 31.261719 "/>
<path style=" stroke:none;fill-rule:nonzero;fill:rgb(3.157043%,2.095032%,3.291321%);fill-opacity:1;" d="M 289.890625 45.082031 C 285.820312 45.082031 284.214844 43.101562 284.25 39.101562 L 286.527344 39.101562 C 286.527344 41.679688 287.125 43.398438 290.003906 43.398438 C 292.167969 43.398438 293.214844 42.167969 293.214844 40.074219 C 293.214844 35.144531 284.734375 36.414062 284.734375 30.175781 C 284.734375 26.703125 287.125 25.46875 290.414062 25.46875 C 294.148438 25.46875 295.34375 28.046875 295.34375 30.921875 L 293.140625 30.921875 C 293.027344 28.53125 292.394531 27.261719 289.851562 27.261719 C 288.246094 27.261719 286.976562 28.308594 286.976562 29.988281 C 286.976562 34.695312 295.457031 33.425781 295.457031 39.738281 C 295.457031 43.289062 293.402344 45.082031 289.890625 45.082031 "/>
</g>
</svg>
